<?xml version="1.0" encoding="UTF-8"?>
<svg version="1.1" xmlns="http://www.w3.org/2000/svg" width="1024" height="1024">
<path d="M0 0 C337.92 0 675.84 0 1024 0 C1024 337.92 1024 675.84 1024 1024 C686.08 1024 348.16 1024 0 1024 C0 686.08 0 348.16 0 0 Z " fill="#FEFEFE" transform="translate(0,0)"/>
<path d="M0 0 C0.87269531 0.2784375 1.74539063 0.556875 2.64453125 0.84375 C9.05643293 3.12879023 13.92609113 6.50673211 19 11 C19.7528125 11.65871094 20.505625 12.31742188 21.28125 12.99609375 C40.60021862 31.02492576 46.99335885 59.2409801 48.12109375 84.73779297 C49.30759022 119.76910127 42.58202252 155.26737758 25.92138672 186.27490234 C25.07193643 187.86531457 24.2550863 189.47302484 23.44140625 191.08203125 C20.01495832 197.72135447 15.80515308 203.29996011 11 209 C9.66269275 210.66347975 8.32828766 212.32930929 7 214 C7.81791016 214.78310547 7.81791016 214.78310547 8.65234375 215.58203125 C34.88735814 241.18919914 53.57042848 276.02901435 54.34375 313.21289062 C54.54125381 335.96286081 50.66356108 356.37280614 41 377 C40.68691895 377.67708008 40.37383789 378.35416016 40.05126953 379.05175781 C30.36968753 399.58347698 14.74896399 418.23043533 -4 431 C-2.70449364 435.53065354 -0.79225826 439.37931626 1.47851562 443.47045898 C6.62081305 452.73958186 10.45406391 461.71619702 13 472 C13.24363281 472.97582031 13.48726562 473.95164062 13.73828125 474.95703125 C18.95474838 500.3296435 12.7220725 527.26791988 -1.375 548.6875 C-1.91125 549.450625 -2.4475 550.21375 -3 551 C-1.47589884 554.48938949 0.61553469 556.9663991 3.125 559.8125 C14.27866601 573.28684813 20.50232176 588.3014149 19 606 C17.07154302 616.7036837 11.64010274 626.32355697 3 633 C-3.2551136 636.49142767 -9.35808297 639.12222038 -16.57441998 639.12863445 C-17.95224039 639.13347112 -17.95224039 639.13347112 -19.35789555 639.1384055 C-20.36342451 639.1368569 -21.36895347 639.1353083 -22.404953 639.13371277 C-24.01151582 639.1371111 -24.01151582 639.1371111 -25.65053445 639.14057809 C-29.25165297 639.14692537 -32.85273392 639.14608825 -36.45385742 639.14526367 C-39.03094532 639.14825475 -41.60803277 639.15165716 -44.18511963 639.15544128 C-50.46682122 639.16374968 -56.74851343 639.16649624 -63.03022005 639.16705366 C-68.13779142 639.16752885 -73.24535968 639.16958377 -78.35293007 639.17275429 C-92.83747805 639.18156237 -107.32201862 639.18617357 -121.8065693 639.18542381 C-122.58752301 639.18538386 -123.36847673 639.1853439 -124.1730957 639.18530273 C-124.95500459 639.18526185 -125.73691347 639.18522097 -126.54251657 639.18517885 C-139.20735356 639.18477262 -151.87216079 639.19433595 -164.53698917 639.2084411 C-177.54473413 639.22281365 -190.55246458 639.22971076 -203.56021768 639.22884732 C-210.86154551 639.2285156 -218.16284216 639.2312519 -225.46416283 639.24202538 C-232.33333799 639.25209623 -239.20244634 639.25178598 -246.07162476 639.24450874 C-248.59150094 639.24346274 -251.11138122 639.24582672 -253.63125038 639.2518692 C-257.07428724 639.25958985 -260.5170968 639.25494356 -263.96012878 639.24723816 C-264.95450413 639.25238172 -265.94887948 639.25752529 -266.97338742 639.26282471 C-276.06280781 639.21795457 -283.73002399 637.59676006 -291.8125 633.4375 C-292.8324707 632.92219727 -292.8324707 632.92219727 -293.87304688 632.39648438 C-300.46886019 628.9533091 -306.24868774 624.70561912 -312 620 C-312.31517578 620.85271484 -312.31517578 620.85271484 -312.63671875 621.72265625 C-317.83702472 630.40970032 -330.9118208 635.10055409 -340 638 C-340.69351563 638.24492188 -341.38703125 638.48984375 -342.1015625 638.7421875 C-355.32438301 642.84970196 -370.01591747 639.54629953 -382.1875 633.875 C-388.73251655 630.41725541 -393.85652884 626.28709339 -399 621 C-399.70769531 620.31292969 -400.41539062 619.62585938 -401.14453125 618.91796875 C-413.49448978 606.19019122 -417.50770982 590.05977219 -417.34960938 572.78881836 C-416.89541551 555.67829211 -410.94624397 541.81570005 -398.88671875 529.66015625 C-386.76235027 518.48736202 -372.82220231 513.78731196 -356.625 513.9375 C-355.69816406 513.94201172 -354.77132812 513.94652344 -353.81640625 513.95117188 C-351.54420291 513.96288426 -349.27213612 513.97928628 -347 514 C-347.03480469 513.34257813 -347.06960938 512.68515625 -347.10546875 512.0078125 C-347.73258656 489.96910099 -340.47023178 468.63168453 -331 449 C-330.70399902 448.38205566 -330.40799805 447.76411133 -330.10302734 447.12744141 C-322.98444207 432.49415293 -313.66826602 419.31580192 -302.4375 407.55859375 C-300.41241314 405.43290161 -298.54419425 403.26980872 -296.6875 401 C-280.63943192 382.6266774 -256.59153909 368.5006429 -234 360 C-232.68 360 -231.36 360 -230 360 C-230.19335938 359.29617188 -230.38671875 358.59234375 -230.5859375 357.8671875 C-234.14766573 344.36083192 -235.38506402 331.21064381 -235.3125 317.3125 C-235.30926727 316.19439941 -235.30926727 316.19439941 -235.30596924 315.05371094 C-235.20771837 293.83606768 -232.28554897 273.59269247 -221.8828125 254.75 C-220.84986686 253.02906857 -220.84986686 253.02906857 -221 251 C-223.63965684 249.32271805 -226.2905926 247.74481978 -229 246.1875 C-248.67644567 234.51813916 -266.20273006 218.38378461 -281 201 C-281.71671875 200.17242187 -282.4334375 199.34484375 -283.171875 198.4921875 C-305.74757119 172.00632171 -325.35829759 141.30191077 -336 108 C-336.22155762 107.35643555 -336.44311523 106.71287109 -336.67138672 106.04980469 C-342.09305685 90.1379299 -343.41667624 68.45140883 -336 53 C-335.525625 51.99453125 -335.05125 50.9890625 -334.5625 49.953125 C-326.25829715 34.22304845 -312.56801726 24.68110974 -296 19 C-284.29845349 16.42306663 -271.27959698 17.15797789 -260 21 C-258.77023437 21.41378906 -257.54046875 21.82757813 -256.2734375 22.25390625 C-229.11347997 31.75438531 -205.98861653 48.58307394 -185 68 C-183.98951991 68.90893102 -182.97773778 69.81641605 -181.96484375 70.72265625 C-176.94596299 75.23093127 -172.08662764 79.75258087 -167.75390625 84.94140625 C-166.47208372 86.44590619 -165.1386006 87.90681588 -163.77734375 89.33984375 C-141.6281664 112.68247915 -121.94725693 145.79869349 -118 178 C-116.78763672 177.7834375 -116.78763672 177.7834375 -115.55078125 177.5625 C-114.48214844 177.376875 -113.41351562 177.19125 -112.3125 177 C-111.25675781 176.814375 -110.20101563 176.62875 -109.11328125 176.4375 C-106.35095938 176.04931926 -103.78257957 175.91740024 -101 176 C-101.20496094 175.0821875 -101.40992188 174.164375 -101.62109375 173.21875 C-102.02521484 171.37796875 -102.02521484 171.37796875 -102.4375 169.5 C-102.83775391 167.69015625 -102.83775391 167.69015625 -103.24609375 165.84375 C-111.80958473 122.18325715 -100.8793809 70.73160465 -77.32421875 33.33984375 C-73.10122904 27.05875331 -68.25962514 21.43321012 -63 16 C-62.23945312 15.21367187 -61.47890625 14.42734375 -60.6953125 13.6171875 C-44.27732414 -2.26250616 -21.59326807 -7.14641682 0 0 Z " fill="#FDFDFE" transform="translate(680,182)"/>
<path d="M0 0 C0.87269531 0.2784375 1.74539063 0.556875 2.64453125 0.84375 C9.05643293 3.12879023 13.92609113 6.50673211 19 11 C19.7528125 11.65871094 20.505625 12.31742188 21.28125 12.99609375 C40.60021862 31.02492576 46.99335885 59.2409801 48.12109375 84.73779297 C49.30759022 119.76910127 42.58202252 155.26737758 25.92138672 186.27490234 C25.07193643 187.86531457 24.2550863 189.47302484 23.44140625 191.08203125 C20.01495832 197.72135447 15.80515308 203.29996011 11 209 C9.66269275 210.66347975 8.32828766 212.32930929 7 214 C7.81791016 214.78310547 7.81791016 214.78310547 8.65234375 215.58203125 C34.88735814 241.18919914 53.57042848 276.02901435 54.34375 313.21289062 C54.54125381 335.96286081 50.66356108 356.37280614 41 377 C40.68691895 377.67708008 40.37383789 378.35416016 40.05126953 379.05175781 C30.36968753 399.58347698 14.74896399 418.23043533 -4 431 C-2.70449364 435.53065354 -0.79225826 439.37931626 1.47851562 443.47045898 C6.62081305 452.73958186 10.45406391 461.71619702 13 472 C13.24363281 472.97582031 13.48726562 473.95164062 13.73828125 474.95703125 C18.95474838 500.3296435 12.7220725 527.26791988 -1.375 548.6875 C-1.91125 549.450625 -2.4475 550.21375 -3 551 C-1.47589884 554.48938949 0.61553469 556.9663991 3.125 559.8125 C14.27866601 573.28684813 20.50232176 588.3014149 19 606 C17.07154302 616.7036837 11.64010274 626.32355697 3 633 C-3.2551136 636.49142767 -9.35808297 639.12222038 -16.57441998 639.12863445 C-17.95224039 639.13347112 -17.95224039 639.13347112 -19.35789555 639.1384055 C-20.36342451 639.1368569 -21.36895347 639.1353083 -22.404953 639.13371277 C-24.01151582 639.1371111 -24.01151582 639.1371111 -25.65053445 639.14057809 C-29.25165297 639.14692537 -32.85273392 639.14608825 -36.45385742 639.14526367 C-39.03094532 639.14825475 -41.60803277 639.15165716 -44.18511963 639.15544128 C-50.46682122 639.16374968 -56.74851343 639.16649624 -63.03022005 639.16705366 C-68.13779142 639.16752885 -73.24535968 639.16958377 -78.35293007 639.17275429 C-92.83747805 639.18156237 -107.32201862 639.18617357 -121.8065693 639.18542381 C-122.58752301 639.18538386 -123.36847673 639.1853439 -124.1730957 639.18530273 C-124.95500459 639.18526185 -125.73691347 639.18522097 -126.54251657 639.18517885 C-139.20735356 639.18477262 -151.87216079 639.19433595 -164.53698917 639.2084411 C-177.54473413 639.22281365 -190.55246458 639.22971076 -203.56021768 639.22884732 C-210.86154551 639.2285156 -218.16284216 639.2312519 -225.46416283 639.24202538 C-232.33333799 639.25209623 -239.20244634 639.25178598 -246.07162476 639.24450874 C-248.59150094 639.24346274 -251.11138122 639.24582672 -253.63125038 639.2518692 C-257.07428724 639.25958985 -260.5170968 639.25494356 -263.96012878 639.24723816 C-264.95450413 639.25238172 -265.94887948 639.25752529 -266.97338742 639.26282471 C-276.06280781 639.21795457 -283.73002399 637.59676006 -291.8125 633.4375 C-292.8324707 632.92219727 -292.8324707 632.92219727 -293.87304688 632.39648438 C-300.46886019 628.9533091 -306.24868774 624.70561912 -312 620 C-312.31517578 620.85271484 -312.31517578 620.85271484 -312.63671875 621.72265625 C-317.83702472 630.40970032 -330.9118208 635.10055409 -340 638 C-340.69351563 638.24492188 -341.38703125 638.48984375 -342.1015625 638.7421875 C-355.32438301 642.84970196 -370.01591747 639.54629953 -382.1875 633.875 C-388.73251655 630.41725541 -393.85652884 626.28709339 -399 621 C-399.70769531 620.31292969 -400.41539062 619.62585938 -401.14453125 618.91796875 C-413.49448978 606.19019122 -417.50770982 590.05977219 -417.34960938 572.78881836 C-416.89541551 555.67829211 -410.94624397 541.81570005 -398.88671875 529.66015625 C-386.76235027 518.48736202 -372.82220231 513.78731196 -356.625 513.9375 C-355.69816406 513.94201172 -354.77132812 513.94652344 -353.81640625 513.95117188 C-351.54420291 513.96288426 -349.27213612 513.97928628 -347 514 C-347.03480469 513.34257813 -347.06960938 512.68515625 -347.10546875 512.0078125 C-347.73258656 489.96910099 -340.47023178 468.63168453 -331 449 C-330.70399902 448.38205566 -330.40799805 447.76411133 -330.10302734 447.12744141 C-322.98444207 432.49415293 -313.66826602 419.31580192 -302.4375 407.55859375 C-300.41241314 405.43290161 -298.54419425 403.26980872 -296.6875 401 C-280.63943192 382.6266774 -256.59153909 368.5006429 -234 360 C-232.68 360 -231.36 360 -230 360 C-230.19335938 359.29617188 -230.38671875 358.59234375 -230.5859375 357.8671875 C-234.14766573 344.36083192 -235.38506402 331.21064381 -235.3125 317.3125 C-235.30926727 316.19439941 -235.30926727 316.19439941 -235.30596924 315.05371094 C-235.20771837 293.83606768 -232.28554897 273.59269247 -221.8828125 254.75 C-220.84986686 253.02906857 -220.84986686 253.02906857 -221 251 C-223.63965684 249.32271805 -226.2905926 247.74481978 -229 246.1875 C-248.67644567 234.51813916 -266.20273006 218.38378461 -281 201 C-281.71671875 200.17242187 -282.4334375 199.34484375 -283.171875 198.4921875 C-305.74757119 172.00632171 -325.35829759 141.30191077 -336 108 C-336.22155762 107.35643555 -336.44311523 106.71287109 -336.67138672 106.04980469 C-342.09305685 90.1379299 -343.41667624 68.45140883 -336 53 C-335.525625 51.99453125 -335.05125 50.9890625 -334.5625 49.953125 C-326.25829715 34.22304845 -312.56801726 24.68110974 -296 19 C-284.29845349 16.42306663 -271.27959698 17.15797789 -260 21 C-258.77023437 21.41378906 -257.54046875 21.82757813 -256.2734375 22.25390625 C-229.11347997 31.75438531 -205.98861653 48.58307394 -185 68 C-183.98951991 68.90893102 -182.97773778 69.81641605 -181.96484375 70.72265625 C-176.94596299 75.23093127 -172.08662764 79.75258087 -167.75390625 84.94140625 C-166.47208372 86.44590619 -165.1386006 87.90681588 -163.77734375 89.33984375 C-141.6281664 112.68247915 -121.94725693 145.79869349 -118 178 C-116.78763672 177.7834375 -116.78763672 177.7834375 -115.55078125 177.5625 C-114.48214844 177.376875 -113.41351562 177.19125 -112.3125 177 C-111.25675781 176.814375 -110.20101563 176.62875 -109.11328125 176.4375 C-106.35095938 176.04931926 -103.78257957 175.91740024 -101 176 C-101.20496094 175.0821875 -101.40992188 174.164375 -101.62109375 173.21875 C-102.02521484 171.37796875 -102.02521484 171.37796875 -102.4375 169.5 C-102.83775391 167.69015625 -102.83775391 167.69015625 -103.24609375 165.84375 C-111.80958473 122.18325715 -100.8793809 70.73160465 -77.32421875 33.33984375 C-73.10122904 27.05875331 -68.25962514 21.43321012 -63 16 C-62.23945312 15.21367187 -61.47890625 14.42734375 -60.6953125 13.6171875 C-44.27732414 -2.26250616 -21.59326807 -7.14641682 0 0 Z M-308.7265625 55.87890625 C-316.87856672 65.81792618 -316.86591528 77.06251729 -315.671875 89.38671875 C-309.71474117 127.38472242 -281.08780987 168.08511971 -253.78125 194.25390625 C-252 196 -252 196 -249.9375 198.625 C-247.00698509 202.21724408 -243.55612825 205.03926613 -240 208 C-239.23598877 208.648479 -239.23598877 208.648479 -238.45654297 209.31005859 C-224.28483987 221.29769579 -208.42922592 231.83769718 -191.0390625 238.55078125 C-190.3586792 238.8139917 -189.6782959 239.07720215 -188.97729492 239.34838867 C-187.65182603 239.85303458 -186.3213798 240.34486128 -184.9855957 240.8215332 C-181.2324847 242.22651323 -178.89369226 243.39653524 -177 247 C-176.62462122 251.72977268 -176.43368633 255.84501597 -179 260 C-183.04356569 262.08124704 -186.81210058 262.37264115 -191.3125 262.625 C-193.19388672 262.73714844 -193.19388672 262.73714844 -195.11328125 262.8515625 C-196.06589844 262.90054688 -197.01851563 262.94953125 -198 263 C-212.60673446 293.31251932 -215.47966722 325.59225969 -204.3972168 357.66186523 C-198.23735492 374.65904109 -188.39697216 388.11906196 -176 401 C-175.05253906 402.05960938 -175.05253906 402.05960938 -174.0859375 403.140625 C-169.2270253 408.40623029 -163.55271346 412.21572001 -157.54614258 416.05688477 C-153.65116187 418.6029018 -150.95324126 420.61249539 -149 425 C-148.4068632 428.98248997 -148.82575885 430.67640929 -150.75 434.25 C-153.97105786 438.18684849 -155.51377422 438.76114229 -160.5 439.5625 C-171.01295894 439.24984695 -179.85295219 429.7708874 -187 423 C-188.3501738 421.87021105 -189.7041287 420.74491954 -191.0625 419.625 C-202.56696485 409.54708879 -212.22019823 395.14518231 -220 382 C-225.61695529 382.56891991 -230.1057986 384.64314393 -235.125 387.0625 C-235.96667725 387.465896 -236.80835449 387.86929199 -237.67553711 388.28491211 C-252.49110727 395.5343596 -264.98748047 405.79429148 -277 417 C-277.92554688 417.83660156 -278.85109375 418.67320312 -279.8046875 419.53515625 C-303.76575065 441.80334 -318.60264215 473.85379775 -323 506 C-323.12890625 506.845625 -323.2578125 507.69125 -323.390625 508.5625 C-323.70967822 511.0477567 -323.8797899 513.49680142 -324 516 C-324.06445312 517.24265625 -324.12890625 518.4853125 -324.1953125 519.765625 C-325.18695569 548.58960821 -317.38694158 577.27265286 -298 599 C-297.45988281 599.65742187 -296.91976562 600.31484375 -296.36328125 600.9921875 C-290.79694162 607.30164048 -281.31313916 612.40694358 -273 614 C-270.87970649 614.08956674 -268.75676626 614.12197149 -266.63458252 614.12025452 C-265.32488998 614.12162918 -264.01519745 614.12300385 -262.66581726 614.12442017 C-261.21633888 614.12088122 -259.76686074 614.11724641 -258.31738281 614.11352539 C-256.78971865 614.11324329 -255.26205435 614.1134017 -253.73439026 614.1139679 C-249.58805328 614.11425498 -245.44174519 614.10837255 -241.29541492 614.10139394 C-236.96189838 614.09514567 -232.62838119 614.09455543 -228.29486084 614.09336853 C-220.08910804 614.09025957 -211.88336854 614.08205203 -203.6776216 614.07201904 C-194.33550769 614.06084442 -184.99339314 614.05534405 -175.6512742 614.05032361 C-156.43417525 614.03986907 -137.2170887 614.02227802 -118 614 C-116.3895853 607.8650479 -115.65473872 601.36067116 -118.05859375 595.35546875 C-122.06819434 588.80319462 -126.92619729 586.35793424 -134 584 C-135.42718637 583.91389486 -136.85806648 583.88228172 -138.2878418 583.88647461 C-139.14850754 583.88655014 -140.00917328 583.88662567 -140.8959198 583.88670349 C-141.82100845 583.89186478 -142.74609711 583.89702606 -143.69921875 583.90234375 C-144.64940384 583.9037587 -145.59958893 583.90517365 -146.5785675 583.90663147 C-149.61491029 583.91223125 -152.65117948 583.92478368 -155.6875 583.9375 C-157.74544164 583.94251503 -159.80338444 583.94707793 -161.86132812 583.95117188 C-166.90758046 583.9622006 -171.95377775 583.97946507 -177 584 C-175.13012847 578.26871052 -172.78558935 572.84725622 -170.33984375 567.33984375 C-166.46235777 557.67439036 -165.73658132 544.13811971 -169.57421875 534.375 C-172.6619806 527.66250753 -176.46901359 520.9753032 -182 516 C-182.71671875 515.34902344 -183.4334375 514.69804688 -184.171875 514.02734375 C-194.39982086 505.31404593 -210.09678201 497 -224 497 C-226.55551228 492.05934293 -227.81908257 487.6025248 -227 482 C-225.20636089 479.1899654 -223.98119065 477.49059532 -221 476 C-205.21143997 473.71104896 -188.01305836 481.83692933 -175.43359375 490.8359375 C-172.87507975 492.81243839 -170.42706404 494.86449885 -168 497 C-166.83984375 498.01707031 -166.83984375 498.01707031 -165.65625 499.0546875 C-148.67812231 514.92807401 -143.3682649 535.67567793 -142 558 C-140.88882813 558.17015625 -139.77765625 558.3403125 -138.6328125 558.515625 C-123.87492858 560.87343274 -112.22245313 564.29809584 -102.25 576.1875 C-93.52153403 588.34645609 -93.28059272 599.40917876 -93 614 C-81.45 614 -69.9 614 -58 614 C-54.29494248 601.03229869 -56.2665625 591.0259082 -61.6875 578.875 C-63.72926365 574.09019826 -65.68462337 569.16287516 -64 564 C-60.40024194 559.44394948 -56.77411502 557.98411157 -51.3125 556.625 C-36.91177802 552.57228857 -26.53491878 542.75779847 -19 530 C-9.31586536 511.5570926 -6.97064959 491.29809066 -12.59765625 471.125 C-15.42829173 462.18213967 -20.19363644 452.52234242 -27 446 C-31.72252523 445.79042048 -36.38633131 448.15025765 -40.78955078 449.78125 C-55.70991244 455.29363827 -69.41688418 458.16329583 -85.3125 458.4375 C-86.20275879 458.46005859 -87.09301758 458.48261719 -88.01025391 458.50585938 C-92.20039593 458.48975274 -94.41038937 458.37326771 -98.0234375 456.0859375 C-101.09772687 452.84152935 -101.8857859 451.04696258 -102.375 446.5625 C-101.93394638 442.37249061 -100.98913863 440.906107 -98 438 C-95.02993117 436.21465469 -92.68822057 435.71677945 -89.24609375 435.54296875 C-88.31861328 435.4852832 -87.39113281 435.42759766 -86.43554688 435.36816406 C-84.95151367 435.27873535 -84.95151367 435.27873535 -83.4375 435.1875 C-49.41073008 432.64994667 -18.95230984 416.94999129 3.41796875 391.21875 C24.54038093 365.28239272 30.91974371 334.87131493 29 302 C27.33056145 286.59088442 20.64075283 270.75159598 12 258 C11.32839844 256.95972656 10.65679688 255.91945313 9.96484375 254.84765625 C-8.68340124 226.76299826 -36.6797149 209.64565884 -69 202 C-69.66443115 201.82194824 -70.3288623 201.64389648 -71.01342773 201.46044922 C-93.92385089 195.67140925 -118.21654552 201.57658814 -140 209 C-139.84273437 207.95199219 -139.68546875 206.90398437 -139.5234375 205.82421875 C-135.2776435 174.80457452 -154.14326707 142.1502305 -172 118 C-182.28319392 104.54340897 -194.0392943 91.90693234 -207 81 C-207.55333008 80.53287598 -208.10666016 80.06575195 -208.67675781 79.58447266 C-218.04260616 71.71411504 -227.60249164 64.45430236 -238 58 C-238.87736816 57.45303467 -238.87736816 57.45303467 -239.77246094 56.89501953 C-262.0931486 43.14532655 -288.7226279 34.1099186 -308.7265625 55.87890625 Z " fill="#162F40" transform="translate(680,182)"/>
<path d="M0 0 C0.71285156 -0.00644531 1.42570313 -0.01289063 2.16015625 -0.01953125 C11.73331564 0.21179045 19.24353817 5.32136265 26.3125 11.5 C44.4621137 36.13886105 45.06725957 69.40103691 40.92578125 98.640625 C40.72339844 99.91421875 40.52101563 101.1878125 40.3125 102.5 C40.14105469 103.60859375 39.96960938 104.7171875 39.79296875 105.859375 C35.13364368 130.98967024 25.10078399 158.4792658 6.3125 176.5 C2.77006548 175.13408831 -0.61377929 173.59068516 -4 171.875 C-4.88300781 171.42898438 -5.76601563 170.98296875 -6.67578125 170.5234375 C-7.33964844 170.18570313 -8.00351562 169.84796875 -8.6875 169.5 C-7.13543953 162.92416485 -5.39078604 156.43532486 -3.48168945 149.95556641 C1.56310528 132.76945658 4.29598279 116.19004213 4.5625 98.25 C4.58401123 97.40985352 4.60552246 96.56970703 4.62768555 95.70410156 C4.66292514 88.97799346 3.70383439 83.23295359 -0.875 78 C-4.49001351 76.0719928 -7.67775745 75.46718753 -11.6875 76.5 C-22.9353804 83.99287155 -25.93916887 101.21407175 -28.62890625 113.72265625 C-31.53752385 128.76967914 -31.42221769 144.22648121 -31.6875 159.5 C-32.76221558 159.30301514 -32.76221558 159.30301514 -33.85864258 159.10205078 C-39.02541622 158.15822515 -44.192393 157.22860586 -49.375 156.375 C-50.89673828 156.12363281 -50.89673828 156.12363281 -52.44921875 155.8671875 C-53.18785156 155.74601563 -53.92648437 155.62484375 -54.6875 155.5 C-55.50556834 152.64732627 -56.31707796 149.79304815 -57.125 146.9375 C-57.35509766 146.13763672 -57.58519531 145.33777344 -57.82226562 144.51367188 C-58.04462891 143.72412109 -58.26699219 142.93457031 -58.49609375 142.12109375 C-58.80244751 141.04492798 -58.80244751 141.04492798 -59.11499023 139.94702148 C-63.85229423 119.69883474 -61.51632406 95.49882843 -56.6875 75.5 C-56.47319336 74.60249023 -56.25888672 73.70498047 -56.03808594 72.78027344 C-49.72776793 47.14403244 -38.36336605 19.89867995 -16.48828125 3.890625 C-11.09731874 0.63225038 -6.16671937 0.05316137 0 0 Z " fill="#FCFCFD" transform="translate(660.6875,203.5)"/>
<path d="M0 0 C0.14695312 1.12792969 0.29390625 2.25585938 0.4453125 3.41796875 C3.28952606 23.91835458 8.41908651 42.62862976 20 60 C19.9375 62.4609375 19.9375 62.4609375 19 65 C9.82743221 73.02599682 -0.28644553 75.70065136 -12.21875 75.40234375 C-22.92068855 74.26360442 -30.92947584 68.91345142 -38 61 C-45.48051133 51.11393005 -46.93594161 41.19695332 -46 29 C-44.13906226 18.03766927 -37.94850124 9.42030015 -29 3 C-21.25106295 -2.34518515 -8.83663173 -2.94554391 0 0 Z " fill="#FBFCFD" transform="translate(333,722)"/>
<path d="M0 0 C14.19933 4.31775545 27.85904416 19.80510469 37 31 C37.42893555 31.51127441 37.85787109 32.02254883 38.29980469 32.54931641 C45.64993175 41.31522624 52.12419588 50.33822789 57.92773438 60.19873047 C58.90493686 61.84030605 59.92680465 63.4550833 60.953125 65.06640625 C64.73856011 71.28407186 66.5346482 76.70744693 65 84 C63.125 87.1875 63.125 87.1875 60 89 C55.28575431 90.1616037 51.54653361 89.72341284 47.15234375 87.66796875 C42.06886511 84.57033321 37.71995931 81.07860571 33.6640625 76.734375 C31.93249809 74.9296459 30.10511509 73.35437916 28.1875 71.75 C13.38007584 58.87151232 -12.7120993 31.22754878 -14.3125 11.0625 C-14.21457503 7.30637807 -13.37761182 4.9940297 -11 2 C-7.24728489 -0.50181008 -4.34127505 -0.60339021 0 0 Z " fill="#172F40" transform="translate(446,303)"/>
<path d="M0 0 C1.02428101 -0.0071553 2.04856201 -0.01431061 3.10388184 -0.02168274 C5.26569753 -0.02945409 7.4275918 -0.02445965 9.58935547 -0.00756836 C12.89571188 0.01165747 16.19786545 -0.02773568 19.50390625 -0.07226562 C21.60677333 -0.07255599 23.70964427 -0.06941593 25.8125 -0.0625 C26.79907593 -0.07778244 27.78565186 -0.09306488 28.80212402 -0.10881042 C35.44688058 0.00393096 35.44688058 0.00393096 38.17123413 1.97836304 C40.48565713 4.59542694 41.40047936 6.24680053 41.4453125 9.76171875 C38.69987567 17.52325445 31.89477699 23.86463002 25.40625 28.69921875 C24.41625 28.69921875 23.42625 28.69921875 22.40625 28.69921875 C22.94661478 31.26821555 23.5122972 33.82698975 24.09375 36.38671875 C24.31708008 37.46856445 24.31708008 37.46856445 24.54492188 38.57226562 C25.71652838 43.60328181 27.26455964 46.35376991 31.40625 49.69921875 C33.54033985 51.01013482 33.54033985 51.01013482 35.65625 51.88671875 C39.30612937 53.4989775 39.30612937 53.4989775 40.40625 55.69921875 C40.78125 58.51171875 40.78125 58.51171875 40.40625 61.69921875 C37.96875 64.51171875 37.96875 64.51171875 35.40625 66.69921875 C35.07625 67.02921875 34.74625 67.35921875 34.40625 67.69921875 C26.106697 68.62876869 21.00907749 67.65133937 14.40625 62.69921875 C13.08618549 62.00664969 11.75574402 61.33253393 10.40625 60.69921875 C9.85195313 61.12074219 9.29765625 61.54226563 8.7265625 61.9765625 C8.00210938 62.52441406 7.27765625 63.07226562 6.53125 63.63671875 C5.81195312 64.18199219 5.09265625 64.72726562 4.3515625 65.2890625 C-0.45598334 68.77405055 -5.84842885 68.27375087 -11.59375 67.69921875 C-14.66740786 65.89118471 -16.02394732 64.83882411 -17.59375 61.69921875 C-17.95318905 58.3923795 -18.09212043 56.44677439 -16.21875 53.63671875 C-13.6845489 51.76623698 -11.40025219 50.70990438 -8.53125 49.44921875 C-5.0063726 47.74898377 -2.99719806 46.64340786 -1.53125 42.94921875 C-1.17315994 41.54338369 -0.86202737 40.12492136 -0.59375 38.69921875 C-0.38621094 37.93867187 -0.17867187 37.178125 0.03515625 36.39453125 C0.55099046 33.98188933 0.77349086 32.14137048 0.40625 29.69921875 C-1.00533592 27.89758936 -2.55077955 26.76472661 -4.40234375 25.421875 C-7.12737559 23.27973767 -9.27407056 20.89092142 -11.53125 18.26171875 C-12.30339844 17.37613281 -13.07554687 16.49054687 -13.87109375 15.578125 C-16.06411908 11.9131371 -16.28109364 9.9038657 -15.59375 5.69921875 C-11.34455455 -0.36362392 -6.81744405 -0.04826158 0 0 Z " fill="#162E3F" transform="translate(617.59375,502.30078125)"/>
<path d="M0 0 C6.56849471 3.3994841 10.44299756 9.46961767 12.71875 16.296875 C13.40483971 22.70037895 11.8804983 27.36116743 8.13671875 32.4453125 C4.0900868 37.32948265 1.15981534 39.83331179 -5.296875 40.703125 C-13.36436165 40.93696519 -18.27144159 39.7874775 -24.28125 34.296875 C-29.50631057 28.8105614 -29.70680801 23.7027434 -29.6171875 16.3359375 C-29.09743778 11.63401561 -27.41729552 8.76424719 -24.28125 5.296875 C-23.47880859 4.39582031 -23.47880859 4.39582031 -22.66015625 3.4765625 C-16.45862825 -2.25818382 -7.85818204 -2.42204241 0 0 Z " fill="#163041" transform="translate(368.28125,470.703125)"/>
<path d="M0 0 C5.94711178 2.30426678 9.78852359 6.37317868 13.07421875 11.76171875 C15.28529457 17.10748433 15.02666069 24.08043366 13.125 29.48828125 C10.06986566 34.82471656 5.98771105 37.82526348 0.05078125 39.57421875 C-5.46552537 40.71950908 -10.27387032 40.81196885 -15.25 37.9375 C-19.97279237 34.62871732 -23.16186689 30.51439933 -25 25 C-25.48048245 19.54140425 -25.76594892 14.65444967 -23.4375 9.625 C-16.05913659 1.67907017 -11.10763444 -1.23882138 0 0 Z " fill="#152F41" transform="translate(687,470)"/>
<path d="M0 0 C5.24062544 3.90000032 10.82709699 9.34476686 12.05859375 16.0078125 C12.26479365 22.58195057 10.54521461 27.66063387 6.6875 33 C2.43151484 37.29010127 -1.76079114 39.35694447 -7.8125 39.6875 C-13.5036295 39.32881537 -17.9336344 37.67543338 -22.3125 34 C-27.05064198 28.1736723 -29.01613342 22.55052788 -28.3125 15 C-26.97210671 7.94953131 -22.97029582 4.14424535 -17.3125 0 C-12.36213871 -2.47518065 -5.13676126 -1.55072038 0 0 Z " fill="#163142" transform="translate(550.3125,471)"/>
<path d="M0 0 C8.71862067 6.76137929 15.08881198 14.92888379 17 26 C17.6839767 32.42552759 17.18389145 37.33974853 14 43 C10.84685215 45.10209857 10.13896919 45.2434761 6.55078125 45.1953125 C5.27944336 45.18564453 5.27944336 45.18564453 3.98242188 45.17578125 C2.66081055 45.15064453 2.66081055 45.15064453 1.3125 45.125 C0.41982422 45.11597656 -0.47285156 45.10695313 -1.39257812 45.09765625 C-3.59532314 45.07409748 -5.79752588 45.04120329 -8 45 C-8.01458252 44.28457031 -8.02916504 43.56914063 -8.04418945 42.83203125 C-8.11919213 39.55417564 -8.21567955 36.27728083 -8.3125 33 C-8.33505859 31.87464844 -8.35761719 30.74929688 -8.38085938 29.58984375 C-8.61161539 22.37524759 -8.61161539 22.37524759 -10.60546875 15.5 C-12 12 -12 12 -12 9.203125 C-10.61814326 6.15872186 -8.91431863 5.32306972 -6 3.75 C-5.0925 3.24984375 -4.185 2.7496875 -3.25 2.234375 C-2.5075 1.82703125 -1.765 1.4196875 -1 1 C-0.67 0.67 -0.34 0.34 0 0 Z " fill="#F7F9FA" transform="translate(657,751)"/>
<path d="M0 0 C0.33 0 0.66 0 1 0 C1.66 5.94 2.32 11.88 3 18 C2.34 17.67 1.68 17.34 1 17 C1 16.01 1 15.02 1 14 C0.34 13.67 -0.32 13.34 -1 13 C-0.67 8.71 -0.34 4.42 0 0 Z " fill="#314754" transform="translate(469,510)"/>
<path d="M0 0 C0.33 0 0.66 0 1 0 C1.33 4.62 1.66 9.24 2 14 C1.34 14 0.68 14 0 14 C0 14.66 0 15.32 0 16 C-0.66 16 -1.32 16 -2 16 C-1.34 10.72 -0.68 5.44 0 0 Z " fill="#3B4E5A" transform="translate(701,298)"/>
<path d="M0 0 C0.66 0.33 1.32 0.66 2 1 C0.54782324 2.50596108 -0.91192861 4.00462104 -2.375 5.5 C-3.18710937 6.3353125 -3.99921875 7.170625 -4.8359375 8.03125 C-7 10 -7 10 -9 10 C-7.61811547 6.78956118 -6.07578097 4.95063635 -3.375 2.75 C-2.74335938 2.22921875 -2.11171875 1.7084375 -1.4609375 1.171875 C-0.73777344 0.59179688 -0.73777344 0.59179688 0 0 Z " fill="#2C444F" transform="translate(390,577)"/>
<path d="M0 0 C0.66 0.33 1.32 0.66 2 1 C0.50902342 4.7952131 -1.75700849 6.61042731 -5 9 C-5.33 8.34 -5.66 7.68 -6 7 C-4.02 4.69 -2.04 2.38 0 0 Z " fill="#253B48" transform="translate(402,596)"/>
<path d="M0 0 C-1.36983503 3.16115776 -1.9890638 3.9927092 -5 6 C-5.33 5.34 -5.66 4.68 -6 4 C-6.66 3.67 -7.32 3.34 -8 3 C-3.375 0 -3.375 0 0 0 Z " fill="#2B4250" transform="translate(678,470)"/>
<path d="M0 0 C0.99 0.33 1.98 0.66 3 1 C2.401875 1.226875 1.80375 1.45375 1.1875 1.6875 C-1.5551169 3.33307014 -2.41968093 5.27035797 -4 8 C-4.66 8 -5.32 8 -6 8 C-4.75237172 4.15314615 -3.6129609 1.97070595 0 0 Z " fill="#2F3E48" transform="translate(621,740)"/>
<path d="M0 0 C0.66 0.66 1.32 1.32 2 2 C1.625 4.625 1.625 4.625 1 7 C0.01 7.33 -0.98 7.66 -2 8 C-1.34 5.36 -0.68 2.72 0 0 Z " fill="#364854" transform="translate(694,330)"/>
</svg>
